<?xml version="1.0" standalone="no"?>
<!DOCTYPE svg PUBLIC "-//W3C//DTD SVG 20010904//EN"
 "http://www.w3.org/TR/2001/REC-SVG-20010904/DTD/svg10.dtd">
<svg version="1.0" xmlns="http://www.w3.org/2000/svg"
 width="700.000000pt" height="700.000000pt" viewBox="0 0 700.000000 700.000000"
 preserveAspectRatio="xMidYMid meet">
<metadata>
Created by potrace 1.14, written by Peter Selinger 2001-2017
</metadata>
<g transform="translate(0.000000,700.000000) scale(0.100000,-0.100000)"
fill="#000000" stroke="none">
<path d="M490 6981 c-77 -41 -127 -161 -148 -356 -15 -150 -6 -539 19 -760 5
-49 12 -110 15 -135 2 -25 7 -58 9 -75 4 -27 9 -67 21 -165 2 -19 6 -50 9 -68
3 -17 8 -47 10 -65 4 -27 41 -257 60 -367 3 -19 10 -62 16 -95 31 -185 123
-641 185 -923 l55 -252 -25 -78 c-45 -137 -81 -304 -92 -417 -3 -33 -7 -71
-10 -85 -6 -36 -6 -327 1 -382 21 -186 23 -199 46 -313 99 -476 347 -970 697
-1385 78 -93 324 -334 412 -406 144 -116 356 -264 379 -264 5 0 11 -3 13 -7 6
-15 160 -95 349 -181 86 -39 340 -122 422 -138 12 -2 56 -10 97 -19 171 -34
245 -40 460 -40 178 0 297 8 386 24 27 5 69 12 93 16 96 14 381 98 476 140 17
7 72 32 122 54 307 135 613 350 884 621 151 151 238 252 356 415 187 258 338
547 436 836 37 107 92 307 101 369 3 19 8 46 11 60 22 99 32 256 30 445 -4
228 -5 245 -41 415 -30 145 -29 139 -59 231 -28 83 -28 93 0 214 24 99 25 107
31 135 3 14 18 86 34 160 16 74 31 146 34 160 2 14 12 61 21 105 10 44 19 94
22 110 2 17 15 85 29 152 13 67 26 134 28 150 2 15 20 120 40 233 19 113 37
223 40 245 8 55 16 116 20 140 2 11 6 45 10 75 4 30 9 66 11 80 10 65 25 192
31 260 4 41 8 89 10 105 19 177 24 516 11 662 -12 137 -41 238 -90 311 -69
105 -230 88 -429 -44 -156 -104 -385 -318 -548 -513 -25 -29 -50 -59 -55 -65
-136 -150 -474 -610 -684 -932 l-92 -142 -52 21 c-246 95 -578 182 -772 202
-33 4 -71 9 -85 11 -44 7 -262 18 -360 18 -410 -1 -857 -88 -1211 -237 l-36
-15 -103 157 c-608 923 -1153 1509 -1485 1596 -78 20 -123 19 -165 -4z"/>
</g>
</svg>
