<?xml version="1.0" standalone="no"?>
<!DOCTYPE svg PUBLIC "-//W3C//DTD SVG 20010904//EN"
 "http://www.w3.org/TR/2001/REC-SVG-20010904/DTD/svg10.dtd">
<svg version="1.0" xmlns="http://www.w3.org/2000/svg"
 width="600.000000pt" height="600.000000pt" viewBox="0 0 600.000000 600.000000"
 preserveAspectRatio="xMidYMid meet">
<metadata>
Created by potrace 1.14, written by Peter Selinger 2001-2017
</metadata>
<g transform="translate(0.000000,600.000000) scale(0.100000,-0.100000)"
fill="#000000" stroke="none">
<path d="M1066 5902 c-7 -12 3 -97 19 -161 8 -30 12 -58 9 -63 -3 -5 -23 5
-44 22 -21 16 -41 30 -46 30 -4 0 -16 7 -26 17 -34 30 -30 5 12 -80 l42 -84 4
-199 c2 -109 6 -219 8 -244 3 -25 8 -76 11 -115 9 -102 21 -207 31 -271 3 -17
6 -46 8 -65 5 -46 25 -190 31 -220 3 -13 8 -44 11 -69 3 -25 7 -52 9 -60 3 -8
7 -33 11 -55 5 -37 46 -257 59 -315 18 -88 17 -96 -22 -146 -118 -151 -229
-332 -324 -529 -147 -304 -200 -525 -126 -525 28 0 109 50 160 98 34 33 37 34
29 12 -12 -28 -25 -62 -27 -70 -1 -3 -9 -23 -19 -45 -9 -22 -31 -76 -48 -120
-17 -44 -36 -93 -43 -110 -53 -121 -115 -314 -155 -485 -30 -124 -36 -258 -13
-281 7 -7 38 -14 70 -16 31 -1 60 -6 64 -10 4 -5 19 -57 33 -116 84 -350 316
-674 661 -924 69 -49 189 -124 252 -157 35 -18 56 -12 124 31 25 16 27 16 105
-44 263 -199 610 -360 928 -433 136 -30 225 -22 429 41 277 85 595 248 798
409 28 22 55 40 61 40 5 0 24 -11 41 -24 65 -48 80 -44 272 81 138 90 224 160
335 272 220 222 345 439 415 720 13 51 28 98 34 104 5 5 29 11 53 12 24 1 51
3 60 4 10 0 19 14 24 33 26 117 -44 382 -219 833 -47 121 -89 234 -93 250 l-7
30 29 -26 c82 -74 159 -108 185 -82 19 19 12 103 -15 197 -71 241 -258 598
-438 835 -57 75 -55 53 -15 266 27 139 27 138 52 290 22 135 23 143 30 195 3
25 8 56 10 70 3 14 7 45 10 70 3 25 7 63 10 85 11 91 17 155 30 300 9 96 16
241 18 360 2 120 2 120 44 202 24 46 43 85 43 89 0 8 -90 -45 -117 -69 -31
-27 -38 -16 -24 35 16 57 30 160 23 176 -2 7 -18 -15 -35 -49 -40 -81 -89
-130 -176 -174 -79 -39 -297 -200 -407 -300 -6 -5 -32 -28 -58 -50 -55 -46
-63 -53 -182 -160 -117 -106 -206 -189 -327 -307 -55 -54 -104 -95 -109 -92
-14 9 -196 60 -243 68 -181 33 -236 38 -390 37 -130 0 -164 -3 -285 -22 -80
-12 -235 -51 -314 -79 l-60 -20 -129 127 c-179 176 -277 267 -446 413 -35 30
-69 60 -75 65 -26 24 -225 184 -277 222 -31 23 -94 62 -140 88 -96 52 -149
105 -189 188 -16 32 -31 54 -34 49z"/>
</g>
</svg>
